{"title":"Tula The Revolt 2013 DVDrip X264 Ac3-MiLLENiUM","uid":9495857,"size":1141869848,"categoryP":"video","categoryS":"movies","magnet":"?xt=urn:btih:90ab43ca7eb3430e94aa72de7305160e5b2d3ed6&amp;dn=Tula+The+Revolt+2013+DVDrip+X264+Ac3-MiLLENiUM&amp;tr=udp%3A%2F%2Ftracker.openbittorrent.com%3A80&amp;tr=udp%3A%2F%2Fopen.demonii.com%3A1337&amp;tr=udp%3A%2F%2Ftracker.coppersurfer.tk%3A6969&amp;tr=udp%3A%2F%2Fexodus.desync.com%3A6969","seeders":2,"leechers":0,"uploader":"NewSky005","files":7,"time":1390106024,"description":"[b]Tula The Revolt 2013 DVDrip X264 Ac3-MiLLENiUM[/b]\n[quote]Complete name                            : Tula The Revolt 2013 DVDrip X264 Ac3-MiLLENiUM.mkv\nSource                                   : DVDR [thanks]\nFormat                                   : Matroska\nFormat version                           : Version 2\nFile size                                : 1.03 GiB\nDuration                                 : 1h 38mn\nOverall bit rate mode                    : Variable\nOverall bit rate                         : 1 506 Kbps\nEncoded date                             : UTC 2014-01-19 01:27:47\nWriting application                      : mkvmerge v6.7.0 ('Back to the Ground') 32bit built on Jan  8 2014 15:03:17\nWriting library                          : libebml v1.3.0 + libmatroska v1.4.1\n\nVideo\nID                                       : 1\nFormat                                   : AVC\nFormat/Info                              : Advanced Video Codec\nFormat profile                           : &lt;a class=&quot;__cf_email__&quot; href=&quot;/cdn-cgi/l/email-protection&quot; data-cfemail=&quot;e0a8898788a0acd4ced1&quot;&gt;[email&amp;#160;protected]&lt;/a&gt;&lt;script cf-hash='f9e31' type=&quot;text/javascript&quot;&gt;\n/* &lt;![CDATA[ */!function(){try{var t=&quot;currentScript&quot;in document?document.currentScript:function(){for(var t=document.getElementsByTagName(&quot;script&quot;),e=t.length;e--;)if(t[e].getAttribute(&quot;cf-hash&quot;))return t[e]}();if(t&amp;&amp;t.previousSibling){var e,r,n,i,c=t.previousSibling,a=c.getAttribute(&quot;data-cfemail&quot;);if(a){for(e=&quot;&quot;,r=parseInt(a.substr(0,2),16),n=2;a.length-n;n+=2)i=parseInt(a.substr(n,2),16)^r,e+=String.fromCharCode(i);e=document.createTextNode(e),c.parentNode.replaceChild(e,c)}}}catch(u){}}();/* ]]&gt; */&lt;/script&gt;\nFormat settings, CABAC                   : Yes\nFormat settings, ReFrames                : 3 frames\nCodec ID                                 : V_MPEG4/ISO/AVC\nDuration                                 : 1h 38mn\nBit rate mode                            : Variable\nBit rate                                 : 1 092 Kbps\nMaximum bit rate                         : 40.0 Mbps\nWidth                                    : 720 pixels\nHeight                                   : 304 pixels\nDisplay aspect ratio                     : 2.35:1\nFrame rate                               : 25.000 fps\nColor space                              : YUV\nChroma subsampling                       : 4:2:0\nBit depth                                : 8 bits\nScan type                                : Progressive\nBits/(Pixel*Frame)                       : 0.200\nStream size                              : 766 MiB (73%)\nWriting library                          : x264 core 140 r2377 1ca7bb9\nDefault                                  : Yes\nForced                                   : No\nColor primaries                          : BT.709-5, BT.1361, IEC 61966-2-4, SMPTE RP177\nTransfer characteristics                 : BT.709-5, BT.1361\nMatrix coefficients                      : BT.709-5, BT.1361, IEC 61966-2-4 709, SMPTE RP177\n\nAudio\nID                                       : 2\nFormat                                   : AC-3\nFormat/Info                              : Audio Coding 3\nMode extension                           : CM (complete main)\nCodec ID                                 : A_AC3\nDuration                                 : 1h 38mn\nBit rate mode                            : Constant\nBit rate                                 : 384 Kbps\nChannel(s)                               : 6 channels\nChannel positions                        : Front: L C R, Side: L R, LFE\nSampling rate                            : 48.0 KHz\nBit depth                                : 16 bits\nCompression mode                         : Lossy\nStream size                              : 270 MiB (26%)\nDefault                                  : Yes\nForced                                   : No[/quote]\n\nScreens &lt;a href=&quot;\nhttp://h33t.to/torrent/6111770/tula-the-revolt-2013-dvdrip-x264-ac3-millenium&quot; rel=&quot;nofollow&quot; target=&quot;_NEW&quot;&gt;\nhttp://h33t.to/torrent/6111770/tula-the-revolt-2013-dvdrip-x264-ac3-millenium&lt;/a&gt;                                 ","torrent":{"xt":"urn:btih:90ab43ca7eb3430e94aa72de7305160e5b2d3ed6","amp;dn":"Tula+The+Revolt+2013+DVDrip+X264+Ac3-MiLLENiUM","amp;tr":["udp%3A%2F%2Ftracker.openbittorrent.com%3A80","udp%3A%2F%2Fopen.demonii.com%3A1337","udp%3A%2F%2Ftracker.coppersurfer.tk%3A6969","udp%3A%2F%2Fexodus.desync.com%3A6969"],"infoHash":"90ab43ca7eb3430e94aa72de7305160e5b2d3ed6","infoHashBuffer":{"type":"Buffer","data":[144,171,67,202,126,179,67,14,148,170,114,222,115,5,22,14,91,45,62,214]},"announce":[],"urlList":[]}}